# xmcd
#
# Track frame offsets:
#	150
#	15744
#	30766
#	52426
#	70387
#	86562
#	101644
#	119647
#	135848
#	149512
#	165106
#	180128
#	201788
#	219749
#	235924
#	251006
#	269009
#	285210
#
# Disc length: 3985
#
# Revision: 1
# Processed by: cddbd v1.5.1PL0 Copyright (c) Steve Scherf et al.
# Submitted via: VOLTOCDX V1.0.24 
# Normalized: r0:TSWAP
#
DISCID=000f8f12
DTITLE=Various Artist - NorthStar Country Vol 3040
DYEAR=2004
DGENRE=Karaoke
TTITLE0=Toby Keith - Willie Nelson - Beer For My Horses
TTITLE1=George Strait - Tell Me Something Bad About Tulsa
TTITLE2=Shania Twain - Forever And For Always
TTITLE3=Brooks and Dunn - Red Dirt Road
TTITLE4=Vince Gill - Someday
TTITLE5=Blake Shelton - Heavy Liftin'
TTITLE6=Emerson Drive - Only God (Could Stop Me From Loving You)
TTITLE7=Jennifer Hanson - This Far Gone
TTITLE8=Mchayes - It Doesn't Mean I Don't Love You
TTITLE9=Toby Keith - Willie Nelson - Beer For My Horses - VT
TTITLE10=George Strait - Tell Me Something Bad About Tulsa - VT
TTITLE11=Shania Twain - Forever And For Always - VT
TTITLE12=Brooks and Dunn - Red Dirt Road - VT
TTITLE13=Vince Gill - Someday - VT
TTITLE14=Blake Shelton - Heavy Liftin' - VT
TTITLE15=Emerson Drive - Only God (Could Stop Me From Loving You) - VT
TTITLE16=Jennifer Hanson - This Far Gone - VT
TTITLE17=Mchayes - It Doesn't Mean I Don't Love You - VT
EXTD=
EXTT0=
EXTT1=
EXTT2=
EXTT3=
EXTT4=
EXTT5=
EXTT6=
EXTT7=
EXTT8=
EXTT9=
EXTT10=
EXTT11=
EXTT12=
EXTT13=
EXTT14=
EXTT15=
EXTT16=
EXTT17=
PLAYORDER=
